<?xml version="1.0" standalone="no"?><!DOCTYPE svg PUBLIC "-//W3C//DTD SVG 1.1//EN" "http://www.w3.org/Graphics/SVG/1.1/DTD/svg11.dtd"><svg width="944px" height="1147px" version="1.1" xmlns="http://www.w3.org/2000/svg" xmlns:xlink="http://www.w3.org/1999/xlink" xml:space="preserve" style="fill-rule:evenodd;clip-rule:evenodd;stroke-linecap:round;stroke-linejoin:round;stroke-miterlimit:1.41421;"><g><g transform="matrix(1,0,0,1,250.441,304.026)"><g id="side" transform="matrix(1.4288,0,0,1.4288,-111.806,-277.481)"><path d="M387.341,142.795c-79.3333,-6.64323 -140.398,-17.8868 -167,2.66667c-23.2358,17.9528 -27.3411,44.6531 -29.3333,101.682" style="fill:none;stroke-width:0.7px;stroke:#052dff;"/><path d="M173.038,55.9985c33.3692,-2.69014 85.8619,-4.86447 167.219,4.96094c24.3635,2.94235 23.016,2.51024 36.4093,42.9748c5.86365,17.7155 20.8001,81.8446 19.3333,96.349c-0.831735,8.2249 -4.02706,14.8164 -19.0156,14.3333c-125.037,-4.02962 -158.351,10.8433 -223.667,59.3333c-29.7779,22.1071 -36.8945,27.4381 -46.6354,24.7016c-13.926,-3.91231 -15.1602,-44.5022 -3.31901,-95.6523c14.5844,-63 38.8657,-120.038 43.0312,-128.685c9,-18.681 13.8359,-17.2834 26.6436,-18.3159Z" style="fill:none;stroke-width:0.7px;stroke:#ff0400;"/></g><g id="front" transform="matrix(1.4288,0,0,1.4288,-93.6866,-134.465)"><g id="head" transform="matrix(1,0,0,1,-22.4926,-18.6667)"><g transform="matrix(1.02266,0,0,1.02266,19.6645,264.047)"><path d="M224.784,36.5668c-77.851,-0.4 -104.292,2.91363 -118.036,5.25c-15.068,2.56144 -13.4698,3.90501 -21.6,47.5332c-7.56246,40.5817 -12.1652,111.383 -10.5,168c0.5,17 0.0527701,19.1701 20.5008,19c12.8537,-0.106931 22.5635,-0.0320322 24.9992,-0.0332031c3.15,-0.00151433 2.14992,-1.88937 2.24668,-9.0897c0.00317362,-0.236171 0.00361463,-0.478494 0.00332133,-0.727104c-0.010244,-8.68319 0.178571,-58.1118 0.178571,-58.1118c0,0 -1.55329,-13.7853 13.3039,-14.071c13.9974,-0.269181 91.5,0.25 91.5,0.25" style="fill:none;stroke-width:0.68px;stroke:#052dff;"/></g><g transform="matrix(-1.02266,0,0,1.02266,481.905,264.047)"><path d="M227.216,36.5551c-77.851,-0.4 -106.723,2.92535 -120.467,5.26172c-15.068,2.56144 -13.4698,3.90501 -21.6,47.5332c-7.56246,40.5817 -12.1652,111.383 -10.5,168c0.5,17 0.0527701,19.1701 20.5008,19c12.8537,-0.106931 22.5635,-0.0320322 24.9992,-0.0332031c3.15,-0.00151433 2.14992,-1.88937 2.24668,-9.0897c0.00317362,-0.236171 0.00361463,-0.478494 0.00332133,-0.727104c-0.010244,-8.68319 0.178571,-58.1118 0.178571,-58.1118c0,0 -1.55329,-13.7853 13.3039,-14.071c13.9974,-0.269181 91.5,0.25 91.5,0.25" style="fill:none;stroke-width:0.68px;stroke:#052dff;"/></g></g></g></g></g></svg>