<?xml version="1.0" standalone="no"?>
<!DOCTYPE svg PUBLIC "-//W3C//DTD SVG 1.1//EN" "http://www.w3.org/Graphics/SVG/1.1/DTD/svg11.dtd">
<svg width="444px" height="539px" version="1.1" xmlns="http://www.w3.org/2000/svg" xmlns:xlink="http://www.w3.org/1999/xlink" xml:space="preserve" style="fill-rule:evenodd;clip-rule:evenodd;stroke-linecap:round;stroke-linejoin:round;stroke-miterlimit:1.41421;">
    <g>
        <g>
            <g id="side">
                <path d="M370.008,113.3C290.674,106.656 229.61,95.4127 203.008,115.966C179.772,133.919 175.667,160.619 173.674,217.648" style="fill:none;stroke-width:1px;stroke:rgb(5,45,255);"/>
                <path d="M155.705,26.503C189.074,23.8129 241.567,21.6385 322.924,31.464C347.288,34.4063 345.94,34.9742 359.333,75.4388C365.197,93.1543 380.133,154.283 378.667,168.788C377.835,177.013 374.64,185.604 359.651,185.121C234.614,181.091 201.3,195.964 135.984,244.454C106.206,266.561 101.59,270.893 89.349,269.156C75.0272,267.124 74.1888,224.654 86.0299,173.504C100.614,110.504 124.896,53.4653 129.061,44.8189C138.061,26.138 142.897,27.5355 155.705,26.503Z" style="fill:none;stroke-width:1px;stroke:rgb(255,4,0);"/>
            </g>
            <g id="front">
                <g id="Layer1">
                    <g>
                        <path d="M228.292,280.541C150.441,280.141 124,283.455 110.256,285.791C95.1884,288.353 96.7866,289.696 88.6564,333.325C81.0939,373.906 76.4912,444.708 78.1564,501.325C78.6564,518.325 78.2091,520.495 98.6571,520.325C111.511,520.218 121.221,520.293 123.656,520.291C126.806,520.29 125.806,518.402 125.903,511.202C125.906,510.966 125.907,510.723 125.906,510.475C125.896,501.791 126.085,452.363 126.085,452.363C126.085,452.363 124.532,438.578 139.389,438.292C153.386,438.023 230.889,438.542 230.889,438.542" style="fill:none;stroke-width:1px;stroke:rgb(5,45,255);"/>
                    </g>
                    <g>
                        <path d="M228.292,280.53C306.143,280.13 335.014,283.455 348.758,285.791C363.826,288.353 362.228,289.696 370.358,333.325C377.921,373.906 382.524,444.708 380.858,501.325C380.358,518.325 380.806,520.495 360.358,520.325C347.504,520.218 337.794,520.293 335.358,520.291C332.208,520.29 333.209,518.402 333.112,511.202C333.109,510.966 333.108,510.723 333.108,510.475C333.119,501.791 332.93,452.363 332.93,452.363C332.93,452.363 334.483,438.578 319.626,438.292C305.629,438.023 228.126,438.542 228.126,438.542" style="fill:none;stroke-width:1px;stroke:rgb(5,45,255);"/>
                    </g>
                </g>
            </g>
        </g>
    </g>
</svg>
